<mxfile host="app.diagrams.net" agent="Mozilla/5.0 (Windows NT 10.0; Win64; x64) AppleWebKit/537.36 (KHTML, like Gecko) Chrome/134.0.0.0 Safari/537.36" version="26.1.1">
  <diagram name="PÃ¡gina-1" id="9iiUmmBF56a1B5mY84sd">
    <mxGraphModel dx="2104" dy="1734" grid="0" gridSize="10" guides="1" tooltips="1" connect="1" arrows="1" fold="1" page="0" pageScale="1" pageWidth="827" pageHeight="1169" math="0" shadow="0">
      <root>
        <mxCell id="0" />
        <mxCell id="1" parent="0" />
        <mxCell id="N7plopeOlg5OspcUYWDg-5" style="edgeStyle=none;curved=1;rounded=0;orthogonalLoop=1;jettySize=auto;html=1;exitX=0.5;exitY=1;exitDx=0;exitDy=0;exitPerimeter=0;entryX=0.5;entryY=0;entryDx=0;entryDy=0;fontSize=12;startSize=8;endSize=8;" edge="1" parent="1" source="N7plopeOlg5OspcUYWDg-1" target="N7plopeOlg5OspcUYWDg-3">
          <mxGeometry relative="1" as="geometry" />
        </mxCell>
        <mxCell id="N7plopeOlg5OspcUYWDg-1" value="INICIO" style="strokeWidth=2;html=1;shape=mxgraph.flowchart.start_1;whiteSpace=wrap;fillColor=#d5e8d4;strokeColor=#82b366;" vertex="1" parent="1">
          <mxGeometry x="130" y="-48" width="100" height="60" as="geometry" />
        </mxCell>
        <mxCell id="N7plopeOlg5OspcUYWDg-2" value="FIM" style="strokeWidth=2;html=1;shape=mxgraph.flowchart.start_1;whiteSpace=wrap;fillColor=#d5e8d4;strokeColor=#82b366;" vertex="1" parent="1">
          <mxGeometry x="130" y="1285" width="100" height="60" as="geometry" />
        </mxCell>
        <mxCell id="N7plopeOlg5OspcUYWDg-6" value="" style="edgeStyle=none;curved=1;rounded=0;orthogonalLoop=1;jettySize=auto;html=1;fontSize=12;startSize=8;endSize=8;" edge="1" parent="1" source="N7plopeOlg5OspcUYWDg-3" target="N7plopeOlg5OspcUYWDg-4">
          <mxGeometry relative="1" as="geometry" />
        </mxCell>
        <mxCell id="N7plopeOlg5OspcUYWDg-3" value="NUMEROS[5]&lt;div&gt;MEDIA = 0&lt;/div&gt;&lt;div&gt;SOMA-NUMEROS = 0&lt;/div&gt;" style="rounded=1;whiteSpace=wrap;html=1;absoluteArcSize=1;arcSize=14;strokeWidth=2;fillColor=#f5f5f5;fontColor=#333333;strokeColor=#666666;" vertex="1" parent="1">
          <mxGeometry x="112" y="33" width="136" height="55" as="geometry" />
        </mxCell>
        <mxCell id="N7plopeOlg5OspcUYWDg-11" value="" style="edgeStyle=none;curved=1;rounded=0;orthogonalLoop=1;jettySize=auto;html=1;fontSize=12;startSize=8;endSize=8;" edge="1" parent="1" source="N7plopeOlg5OspcUYWDg-4" target="N7plopeOlg5OspcUYWDg-10">
          <mxGeometry relative="1" as="geometry" />
        </mxCell>
        <mxCell id="N7plopeOlg5OspcUYWDg-4" value="CONTADOR 1, 5, 1" style="shape=hexagon;perimeter=hexagonPerimeter2;whiteSpace=wrap;html=1;fixedSize=1;fillColor=#fff2cc;strokeColor=#d6b656;" vertex="1" parent="1">
          <mxGeometry x="120" y="120" width="120" height="80" as="geometry" />
        </mxCell>
        <mxCell id="N7plopeOlg5OspcUYWDg-13" value="" style="edgeStyle=none;curved=1;rounded=0;orthogonalLoop=1;jettySize=auto;html=1;fontSize=12;startSize=8;endSize=8;" edge="1" parent="1" source="N7plopeOlg5OspcUYWDg-10" target="N7plopeOlg5OspcUYWDg-12">
          <mxGeometry relative="1" as="geometry" />
        </mxCell>
        <mxCell id="N7plopeOlg5OspcUYWDg-10" value="NUMERO[CONTADOR]" style="html=1;strokeWidth=2;shape=manualInput;whiteSpace=wrap;rounded=1;size=26;arcSize=11;fillColor=#dae8fc;strokeColor=#6c8ebf;" vertex="1" parent="1">
          <mxGeometry x="101.5" y="224" width="157" height="60" as="geometry" />
        </mxCell>
        <mxCell id="N7plopeOlg5OspcUYWDg-17" style="edgeStyle=none;curved=1;rounded=0;orthogonalLoop=1;jettySize=auto;html=1;exitX=0;exitY=0.5;exitDx=0;exitDy=0;entryX=0;entryY=0.5;entryDx=0;entryDy=0;fontSize=12;startSize=8;endSize=8;" edge="1" parent="1" source="N7plopeOlg5OspcUYWDg-12" target="N7plopeOlg5OspcUYWDg-4">
          <mxGeometry relative="1" as="geometry">
            <Array as="points">
              <mxPoint x="-83" y="270" />
            </Array>
          </mxGeometry>
        </mxCell>
        <mxCell id="N7plopeOlg5OspcUYWDg-12" value="SOMA-NUMEROS = SOMA-NUMEROS + NUMERO[CONTADOR]" style="rounded=1;whiteSpace=wrap;html=1;absoluteArcSize=1;arcSize=14;strokeWidth=2;fillColor=#f5f5f5;fontColor=#333333;strokeColor=#666666;" vertex="1" parent="1">
          <mxGeometry x="63" y="316" width="234" height="82" as="geometry" />
        </mxCell>
        <mxCell id="N7plopeOlg5OspcUYWDg-19" value="" style="edgeStyle=none;curved=1;rounded=0;orthogonalLoop=1;jettySize=auto;html=1;fontSize=12;startSize=8;endSize=8;" edge="1" parent="1" source="N7plopeOlg5OspcUYWDg-15" target="N7plopeOlg5OspcUYWDg-18">
          <mxGeometry relative="1" as="geometry" />
        </mxCell>
        <mxCell id="N7plopeOlg5OspcUYWDg-15" value="" style="strokeWidth=2;html=1;shape=mxgraph.flowchart.start_2;whiteSpace=wrap;fillColor=#f5f5f5;gradientColor=#b3b3b3;strokeColor=#666666;" vertex="1" parent="1">
          <mxGeometry x="156.5" y="466" width="47" height="46" as="geometry" />
        </mxCell>
        <mxCell id="N7plopeOlg5OspcUYWDg-16" style="edgeStyle=none;curved=1;rounded=0;orthogonalLoop=1;jettySize=auto;html=1;exitX=1;exitY=0.5;exitDx=0;exitDy=0;entryX=1;entryY=0.5;entryDx=0;entryDy=0;entryPerimeter=0;fontSize=12;startSize=8;endSize=8;" edge="1" parent="1" source="N7plopeOlg5OspcUYWDg-4" target="N7plopeOlg5OspcUYWDg-15">
          <mxGeometry relative="1" as="geometry">
            <Array as="points">
              <mxPoint x="371" y="316" />
              <mxPoint x="314" y="413" />
            </Array>
          </mxGeometry>
        </mxCell>
        <mxCell id="N7plopeOlg5OspcUYWDg-21" value="" style="edgeStyle=none;curved=1;rounded=0;orthogonalLoop=1;jettySize=auto;html=1;fontSize=12;startSize=8;endSize=8;" edge="1" parent="1" source="N7plopeOlg5OspcUYWDg-18" target="N7plopeOlg5OspcUYWDg-20">
          <mxGeometry relative="1" as="geometry" />
        </mxCell>
        <mxCell id="N7plopeOlg5OspcUYWDg-18" value="MEDIA = SOMA-NUMEROS / 5" style="rounded=1;whiteSpace=wrap;html=1;absoluteArcSize=1;arcSize=14;strokeWidth=2;fillColor=#f5f5f5;fontColor=#333333;strokeColor=#666666;" vertex="1" parent="1">
          <mxGeometry x="79.5" y="554" width="201" height="55" as="geometry" />
        </mxCell>
        <mxCell id="N7plopeOlg5OspcUYWDg-24" value="" style="edgeStyle=none;curved=1;rounded=0;orthogonalLoop=1;jettySize=auto;html=1;fontSize=12;startSize=8;endSize=8;" edge="1" parent="1" source="N7plopeOlg5OspcUYWDg-20" target="N7plopeOlg5OspcUYWDg-23">
          <mxGeometry relative="1" as="geometry" />
        </mxCell>
        <mxCell id="N7plopeOlg5OspcUYWDg-20" value="MEDIA" style="strokeWidth=2;html=1;shape=mxgraph.flowchart.display;whiteSpace=wrap;fillColor=#e1d5e7;strokeColor=#9673a6;" vertex="1" parent="1">
          <mxGeometry x="130" y="654" width="100" height="60" as="geometry" />
        </mxCell>
        <mxCell id="N7plopeOlg5OspcUYWDg-36" value="" style="edgeStyle=none;curved=1;rounded=0;orthogonalLoop=1;jettySize=auto;html=1;fontSize=12;startSize=8;endSize=8;" edge="1" parent="1" source="N7plopeOlg5OspcUYWDg-22" target="N7plopeOlg5OspcUYWDg-26">
          <mxGeometry relative="1" as="geometry" />
        </mxCell>
        <mxCell id="N7plopeOlg5OspcUYWDg-38" value="S" style="edgeLabel;html=1;align=center;verticalAlign=middle;resizable=0;points=[];fontSize=12;" vertex="1" connectable="0" parent="N7plopeOlg5OspcUYWDg-36">
          <mxGeometry x="-0.3143" y="-3" relative="1" as="geometry">
            <mxPoint y="1" as="offset" />
          </mxGeometry>
        </mxCell>
        <mxCell id="N7plopeOlg5OspcUYWDg-22" value="NUMERO[CONTADOR] &amp;gt; MEDIA" style="strokeWidth=2;html=1;shape=mxgraph.flowchart.decision;whiteSpace=wrap;fillColor=#ffe6cc;strokeColor=#d79b00;" vertex="1" parent="1">
          <mxGeometry x="62" y="869" width="236" height="98" as="geometry" />
        </mxCell>
        <mxCell id="N7plopeOlg5OspcUYWDg-23" value="CONTADOR 1, 5, 1" style="shape=hexagon;perimeter=hexagonPerimeter2;whiteSpace=wrap;html=1;fixedSize=1;fillColor=#fff2cc;strokeColor=#d6b656;" vertex="1" parent="1">
          <mxGeometry x="120" y="748" width="120" height="80" as="geometry" />
        </mxCell>
        <mxCell id="N7plopeOlg5OspcUYWDg-25" style="edgeStyle=none;curved=1;rounded=0;orthogonalLoop=1;jettySize=auto;html=1;exitX=0.5;exitY=1;exitDx=0;exitDy=0;entryX=0.5;entryY=0;entryDx=0;entryDy=0;entryPerimeter=0;fontSize=12;startSize=8;endSize=8;" edge="1" parent="1" source="N7plopeOlg5OspcUYWDg-23" target="N7plopeOlg5OspcUYWDg-22">
          <mxGeometry relative="1" as="geometry" />
        </mxCell>
        <mxCell id="N7plopeOlg5OspcUYWDg-42" style="edgeStyle=none;curved=1;rounded=0;orthogonalLoop=1;jettySize=auto;html=1;exitX=0;exitY=0.5;exitDx=0;exitDy=0;exitPerimeter=0;entryX=0;entryY=0.5;entryDx=0;entryDy=0;fontSize=12;startSize=8;endSize=8;" edge="1" parent="1" source="N7plopeOlg5OspcUYWDg-26" target="N7plopeOlg5OspcUYWDg-23">
          <mxGeometry relative="1" as="geometry">
            <Array as="points">
              <mxPoint x="-37" y="943" />
            </Array>
          </mxGeometry>
        </mxCell>
        <mxCell id="N7plopeOlg5OspcUYWDg-26" value="NUMERO[CONTADOR]" style="strokeWidth=2;html=1;shape=mxgraph.flowchart.display;whiteSpace=wrap;fillColor=#e1d5e7;strokeColor=#9673a6;" vertex="1" parent="1">
          <mxGeometry x="94.5" y="1052" width="171" height="69" as="geometry" />
        </mxCell>
        <mxCell id="N7plopeOlg5OspcUYWDg-46" value="" style="edgeStyle=none;curved=1;rounded=0;orthogonalLoop=1;jettySize=auto;html=1;fontSize=12;startSize=8;endSize=8;" edge="1" parent="1" source="N7plopeOlg5OspcUYWDg-30" target="N7plopeOlg5OspcUYWDg-2">
          <mxGeometry relative="1" as="geometry" />
        </mxCell>
        <mxCell id="N7plopeOlg5OspcUYWDg-30" value="" style="strokeWidth=2;html=1;shape=mxgraph.flowchart.start_2;whiteSpace=wrap;fillColor=#f5f5f5;gradientColor=#b3b3b3;strokeColor=#666666;" vertex="1" parent="1">
          <mxGeometry x="156.5" y="1200" width="47" height="46" as="geometry" />
        </mxCell>
        <mxCell id="N7plopeOlg5OspcUYWDg-43" style="edgeStyle=none;curved=1;rounded=0;orthogonalLoop=1;jettySize=auto;html=1;exitX=1;exitY=0.5;exitDx=0;exitDy=0;entryX=1;entryY=0.5;entryDx=0;entryDy=0;entryPerimeter=0;fontSize=12;startSize=8;endSize=8;" edge="1" parent="1" source="N7plopeOlg5OspcUYWDg-23" target="N7plopeOlg5OspcUYWDg-30">
          <mxGeometry relative="1" as="geometry">
            <Array as="points">
              <mxPoint x="467" y="1044" />
            </Array>
          </mxGeometry>
        </mxCell>
      </root>
    </mxGraphModel>
  </diagram>
</mxfile>
